. 
  
http://www.torrentday.com/        :     The Hottest Private Tracker On The Net!!!


               www . TorrentDay . Com 
(((((((((((((= Enjoy No RAR releases =))))))))))))))))))))


...................................NFO:....................................

.*******************************************************************************
                   Wassup.Rockers.2005.DVDRip.AC3.X264-BARC0DE
*******************************************************************************

-------------------------------------------------------------------------------
                              General Information
-------------------------------------------------------------------------------
Type.................: Movie
Name.................: Wassup Rockers
Movie Information....: http://www.imdb.com/title/tt0413466/
Genre................: Comedy | Drama

-------------------------------------------------------------------------------
                                    PLOT
-------------------------------------------------------------------------------
Instead of adhering to the norms of their South Central neighborhood, a group of 
skater boys opt to bus into Hollywood and Beverly Hills, where they attract local 
rich girls - and plenty of trouble with the police, jealous boyfriends, and nervous 
parents.  

-------------------------------------------------------------------------------
                                    CAST
-------------------------------------------------------------------------------
Jonathan Velasquez	... 	Jonathan
Francisco Pedrasa	... 	Kico
Milton Velasquez	... 	Milton / Spermball
Usvaldo Panameno	... 	Porky
Eddie Velasquez	... 	Eddie
Luis Rojas-Salgado	... 	Louie (as Luis Rojas Salgado)
Carlos Ramirez	... 	Carlos
Iris Zelaya	... 	Iris
Ashley Maldonado	... 	Rosalia
Laura Cellner	... 	Jade
Jessica Steinbaum	... 	Nikki
Chris Neville	... 	Beverly Hills Cop

-------------------------------------------------------------------------------
                                    MEDiA iNFO
-------------------------------------------------------------------------------

General
Complete name                    : Wassup.Rockers.2005.DVDRip.AC3.X264-BARC0DE.mkv
Format                           : Matroska
File size                        : 1.42 GiB
Duration                         : 1h 46mn
Overall bit rate                 : 1 909 Kbps


Video
ID                               : 1
Format                           : AVC
Format/Info                      : Advanced Video Codec
Format profile                   : High@L3.0
Format settings, CABAC           : Yes
Format settings, ReFrames        : 3 frames
Muxing mode                      : Container profile=Unknown@3.0
Codec ID                         : V_MPEG4/ISO/AVC
Duration                         : 1h 46mn
Bit rate                         : 1 423 Kbps
Nominal bit rate                 : 1 509 Kbps
Width                            : 720 pixels
Height                           : 400 pixels
Display aspect ratio             : 16:9
Frame rate                       : 25.000 fps
Color space                      : YUV
Chroma subsampling               : 4:2:0
Bit depth                        : 8 bits
Scan type                        : Progressive
Bits/(Pixel*Frame)               : 0.198
Stream size                      : 1.06 GiB (75%)
Writing library                  : x264 core 79


Audio
ID                               : 2
Format                           : AC-3
Format/Info                      : Audio Coding 3
Mode extension                   : CM (complete main)
Codec ID                         : A_AC3
Duration                         : 1h 46mn
Bit rate mode                    : Constant
Bit rate                         : 448 Kbps
Channel(s)                       : 6 channels
Channel positions                : Front: L C R, Side: L R, LFE
Sampling rate                    : 48.0 KHz
Stream size                      : 342 MiB (23%)
Language                         : English

Text
ID                               : 3
Format                           : VobSub
Codec ID                         : S_VOBSUB
Codec ID/Info                    : The same subtitle format used on DVDs
Language                         : French